<svg width="1600" height="775" xmlns="http://www.w3.org/2000/svg"><g><path d="M-125,-85L-81,546L-27,218Z" fill="#e67c50" stroke="#e67c50"/><path d="M-125,-85L-27,218L-40,122Z" fill="#e74b35" stroke="#e74b35"/><path d="M-125,-85L-40,122L83,39Z" fill="#e93a2d" stroke="#e93a2d"/><path d="M-125,-85L83,39L114,-81Z" fill="#ed2825" stroke="#ed2825"/><path d="M-125,-85L114,-81L325,-108Z" fill="#f32822" stroke="#f32822"/><path d="M114,-81L83,39L199,34Z" fill="#f54833" stroke="#f54833"/><path d="M114,-81L199,34L216,-43Z" fill="#f84432" stroke="#f84432"/><path d="M114,-81L216,-43L325,-108Z" fill="#fa3a2d" stroke="#fa3a2d"/><path d="M216,-43L199,34L426,109Z" fill="#fc6d45" stroke="#fc6d45"/><path d="M216,-43L426,109L325,-108Z" fill="#fd623f" stroke="#fd623f"/><path d="M325,-108L426,109L543,-58Z" fill="#fe7148" stroke="#fe7148"/><path d="M325,-108L543,-58L709,-104Z" fill="#ff6745" stroke="#ff6745"/><path d="M325,-108L709,-104L1151,-128Z" fill="#f37549" stroke="#f37549"/><path d="M543,-58L426,109L483,133Z" fill="#fe955c" stroke="#fe955c"/><path d="M543,-58L483,133L670,50Z" fill="#ff9861" stroke="#ff9861"/><path d="M543,-58L670,50L709,-104Z" fill="#fb8056" stroke="#fb8056"/><path d="M709,-104L670,50L770,-58Z" fill="#f48356" stroke="#f48356"/><path d="M709,-104L770,-58L963,-34Z" fill="#ea7b50" stroke="#ea7b50"/><path d="M709,-104L963,-34L1151,-128Z" fill="#da7042" stroke="#da7042"/><path d="M770,-58L670,50L785,79Z" fill="#f29b61" stroke="#f29b61"/><path d="M770,-58L785,79L963,-34Z" fill="#e79159" stroke="#e79159"/><path d="M963,-34L785,79L873,180Z" fill="#e3ad64" stroke="#e3ad64"/><path d="M963,-34L873,180L1023,59Z" fill="#d9a55c" stroke="#d9a55c"/><path d="M963,-34L1023,59L1151,-128Z" fill="#cb7945" stroke="#cb7945"/><path d="M1151,-128L1023,59L1221,29Z" fill="#be7b47" stroke="#be7b47"/><path d="M1151,-128L1221,29L1239,-30Z" fill="#b26b41" stroke="#b26b41"/><path d="M1151,-128L1239,-30L1416,-120Z" fill="#a65835" stroke="#a65835"/><path d="M1239,-30L1221,29L1448,89Z" fill="#9f7d49" stroke="#9f7d49"/><path d="M1239,-30L1448,89L1416,-120Z" fill="#93643d" stroke="#93643d"/><path d="M1416,-120L1448,89L1540,-43Z" fill="#805938" stroke="#805938"/><path d="M1416,-120L1540,-43L1765,-17Z" fill="#80422d" stroke="#80422d"/><path d="M1540,-43L1448,89L1627,88Z" fill="#806d41" stroke="#806d41"/><path d="M1540,-43L1627,88L1685,70Z" fill="#80633b" stroke="#80633b"/><path d="M1540,-43L1685,70L1765,-17Z" fill="#805233" stroke="#805233"/><path d="M1765,-17L1685,70L1767,237Z" fill="#806e40" stroke="#806e40"/><path d="M-40,122L-27,218L117,169Z" fill="#ec794a" stroke="#ec794a"/><path d="M-40,122L117,169L83,39Z" fill="#ef6642" stroke="#ef6642"/><path d="M83,39L117,169L199,34Z" fill="#f56842" stroke="#f56842"/><path d="M199,34L117,169L231,198Z" fill="#f8844f" stroke="#f8844f"/><path d="M199,34L231,198L426,109Z" fill="#fc8c53" stroke="#fc8c53"/><path d="M426,109L231,198L411,275Z" fill="#fdb867" stroke="#fdb867"/><path d="M426,109L411,275L470,230Z" fill="#fec671" stroke="#fec671"/><path d="M426,109L470,230L483,133Z" fill="#feb86a" stroke="#feb86a"/><path d="M483,133L470,230L694,223Z" fill="#ffd27a" stroke="#ffd27a"/><path d="M483,133L694,223L670,50Z" fill="#fdc175" stroke="#fdc175"/><path d="M670,50L694,223L785,79Z" fill="#f4be71" stroke="#f4be71"/><path d="M785,79L694,223L873,180Z" fill="#eed279" stroke="#eed279"/><path d="M1023,59L873,180L929,265Z" fill="#dacd6f" stroke="#dacd6f"/><path d="M1023,59L929,265L1081,235Z" fill="#d1d06d" stroke="#d1d06d"/><path d="M1023,59L1081,235L1104,131Z" fill="#c8bb64" stroke="#c8bb64"/><path d="M1023,59L1104,131L1221,29Z" fill="#c09d57" stroke="#c09d57"/><path d="M1104,131L1081,235L1257,228Z" fill="#bbcb6d" stroke="#bbcb6d"/><path d="M1104,131L1257,228L1221,29Z" fill="#b4ad60" stroke="#b4ad60"/><path d="M1221,29L1257,228L1448,89Z" fill="#9e9d58" stroke="#9e9d58"/><path d="M1448,89L1257,228L1404,253Z" fill="#93b563" stroke="#93b563"/><path d="M1448,89L1404,253L1542,221Z" fill="#80ab5e" stroke="#80ab5e"/><path d="M1448,89L1542,221L1627,88Z" fill="#808e50" stroke="#808e50"/><path d="M1627,88L1542,221L1767,237Z" fill="#809954" stroke="#809954"/><path d="M1627,88L1767,237L1685,70Z" fill="#808049" stroke="#808049"/><path d="M-27,218L-81,546L-23,425Z" fill="#e69162" stroke="#e69162"/><path d="M-27,218L-23,425L93,393Z" fill="#ec9a68" stroke="#ec9a68"/><path d="M-27,218L93,393L117,169Z" fill="#f09a63" stroke="#f09a63"/><path d="M117,169L93,393L176,365Z" fill="#f5ab70" stroke="#f5ab70"/><path d="M117,169L176,365L231,198Z" fill="#f8a766" stroke="#f8a766"/><path d="M231,198L176,365L382,358Z" fill="#fbc079" stroke="#fbc079"/><path d="M231,198L382,358L411,275Z" fill="#fdca7c" stroke="#fdca7c"/><path d="M411,275L382,358L487,320Z" fill="#feda87" stroke="#feda87"/><path d="M411,275L487,320L470,230Z" fill="#feda86" stroke="#feda86"/><path d="M470,230L487,320L694,223Z" fill="#ffe28b" stroke="#ffe28b"/><path d="M694,223L487,320L681,340Z" fill="#fdf199" stroke="#fdf199"/><path d="M694,223L681,340L823,402Z" fill="#f2f599" stroke="#f2f599"/><path d="M694,223L823,402L873,180Z" fill="#edf293" stroke="#edf293"/><path d="M873,180L823,402L929,265Z" fill="#e3f191" stroke="#e3f191"/><path d="M929,265L823,402L1004,390Z" fill="#ddf18f" stroke="#ddf18f"/><path d="M929,265L1004,390L1081,235Z" fill="#d2ec88" stroke="#d2ec88"/><path d="M1081,235L1004,390L1155,344Z" fill="#c6e787" stroke="#c6e787"/><path d="M1081,235L1155,344L1257,228Z" fill="#b8db80" stroke="#b8db80"/><path d="M1257,228L1155,344L1266,408Z" fill="#aedc84" stroke="#aedc84"/><path d="M1257,228L1266,408L1404,253Z" fill="#9ed480" stroke="#9ed480"/><path d="M1404,253L1266,408L1407,420Z" fill="#95d07d" stroke="#95d07d"/><path d="M1404,253L1407,420L1542,221Z" fill="#83c779" stroke="#83c779"/><path d="M1542,221L1407,420L1611,405Z" fill="#80c176" stroke="#80c176"/><path d="M1542,221L1611,405L1728,340Z" fill="#80b770" stroke="#80b770"/><path d="M1542,221L1728,340L1767,237Z" fill="#80ac67" stroke="#80ac67"/><path d="M1767,237L1728,340L1705,530Z" fill="#80ad6b" stroke="#80ad6b"/><path d="M1767,237L1705,530L1765,869Z" fill="#4ba254" stroke="#4ba254"/><path d="M-23,425L-81,546L75,563Z" fill="#c49251" stroke="#c49251"/><path d="M-23,425L75,563L93,393Z" fill="#d99f5b" stroke="#d99f5b"/><path d="M93,393L75,563L188,553Z" fill="#d0a75a" stroke="#d0a75a"/><path d="M93,393L188,553L176,365Z" fill="#e8af67" stroke="#e8af67"/><path d="M176,365L188,553L382,358Z" fill="#f0be70" stroke="#f0be70"/><path d="M382,358L188,553L381,549Z" fill="#dfc96a" stroke="#dfc96a"/><path d="M382,358L381,549L503,526Z" fill="#e4da74" stroke="#e4da74"/><path d="M382,358L503,526L487,320Z" fill="#fade87" stroke="#fade87"/><path d="M487,320L503,526L681,340Z" fill="#fcea93" stroke="#fcea93"/><path d="M681,340L503,526L646,563Z" fill="#e4f086" stroke="#e4f086"/><path d="M681,340L646,563L823,402Z" fill="#e6f48f" stroke="#e6f48f"/><path d="M823,402L646,563L853,561Z" fill="#c9f284" stroke="#c9f284"/><path d="M823,402L853,561L1014,489Z" fill="#c3f27d" stroke="#c3f27d"/><path d="M823,402L1014,489L1004,390Z" fill="#ceef85" stroke="#ceef85"/><path d="M1004,390L1014,489L1155,344Z" fill="#c4e883" stroke="#c4e883"/><path d="M1155,344L1014,489L1085,542Z" fill="#b0e678" stroke="#b0e678"/><path d="M1155,344L1085,542L1273,479Z" fill="#a3e077" stroke="#a3e077"/><path d="M1155,344L1273,479L1266,408Z" fill="#a6db7f" stroke="#a6db7f"/><path d="M1266,408L1273,479L1407,420Z" fill="#8fd475" stroke="#8fd475"/><path d="M1407,420L1273,479L1433,470Z" fill="#7ece6f" stroke="#7ece6f"/><path d="M1407,420L1433,470L1611,405Z" fill="#73c46e" stroke="#73c46e"/><path d="M1611,405L1433,470L1592,525Z" fill="#68be64" stroke="#68be64"/><path d="M1611,405L1592,525L1705,530Z" fill="#62b55c" stroke="#62b55c"/><path d="M1611,405L1705,530L1728,340Z" fill="#75b266" stroke="#75b266"/><path d="M-81,546L-57,831L-64,645Z" fill="#7a693f" stroke="#7a693f"/><path d="M-81,546L-64,645L75,563Z" fill="#a5844d" stroke="#a5844d"/><path d="M75,563L-64,645L56,726Z" fill="#8e7e49" stroke="#8e7e49"/><path d="M75,563L56,726L208,719Z" fill="#89864c" stroke="#89864c"/><path d="M75,563L208,719L188,553Z" fill="#a69a56" stroke="#a69a56"/><path d="M188,553L208,719L335,640Z" fill="#9fa25a" stroke="#9fa25a"/><path d="M188,553L335,640L381,549Z" fill="#b9b864" stroke="#b9b864"/><path d="M381,549L335,640L470,645Z" fill="#aec068" stroke="#aec068"/><path d="M381,549L470,645L503,526Z" fill="#becf72" stroke="#becf72"/><path d="M503,526L470,645L646,563Z" fill="#bdda7a" stroke="#bdda7a"/><path d="M646,563L470,645L698,714Z" fill="#a1d37a" stroke="#a1d37a"/><path d="M646,563L698,714L791,633Z" fill="#99d87a" stroke="#99d87a"/><path d="M646,563L791,633L853,561Z" fill="#abe680" stroke="#abe680"/><path d="M853,561L791,633L996,704Z" fill="#88d874" stroke="#88d874"/><path d="M853,561L996,704L1014,489Z" fill="#94df74" stroke="#94df74"/><path d="M1014,489L996,704L1085,542Z" fill="#8cdc70" stroke="#8cdc70"/><path d="M1085,542L996,704L1168,678Z" fill="#68ca68" stroke="#68ca68"/><path d="M1085,542L1168,678L1216,670Z" fill="#61c768" stroke="#61c768"/><path d="M1085,542L1216,670L1273,479Z" fill="#78d26d" stroke="#78d26d"/><path d="M1273,479L1216,670L1447,706Z" fill="#4abc63" stroke="#4abc63"/><path d="M1273,479L1447,706L1433,470Z" fill="#59c365" stroke="#59c365"/><path d="M1433,470L1447,706L1592,525Z" fill="#42b65f" stroke="#42b65f"/><path d="M1592,525L1447,706L1547,734Z" fill="#1ca054" stroke="#1ca054"/><path d="M1592,525L1547,734L1691,712Z" fill="#1b9850" stroke="#1b9850"/><path d="M1592,525L1691,712L1705,530Z" fill="#39a256" stroke="#39a256"/><path d="M1705,530L1691,712L1765,869Z" fill="#068346" stroke="#068346"/><path d="M-64,645L-57,831L56,726Z" fill="#6a633b" stroke="#6a633b"/><path d="M56,726L-57,831L67,823Z" fill="#6d5c37" stroke="#6d5c37"/><path d="M56,726L67,823L183,809Z" fill="#736a3d" stroke="#736a3d"/><path d="M56,726L183,809L208,719Z" fill="#777945" stroke="#777945"/><path d="M208,719L183,809L382,877Z" fill="#7c7f47" stroke="#7c7f47"/><path d="M208,719L382,877L335,640Z" fill="#7d9351" stroke="#7d9351"/><path d="M335,640L382,877L470,645Z" fill="#7fa85b" stroke="#7fa85b"/><path d="M470,645L382,877L526,803Z" fill="#7fa35b" stroke="#7fa35b"/><path d="M470,645L526,803L698,714Z" fill="#7fbd6d" stroke="#7fbd6d"/><path d="M698,714L526,803L732,832Z" fill="#7ab569" stroke="#7ab569"/><path d="M698,714L732,832L830,823Z" fill="#71b768" stroke="#71b768"/><path d="M698,714L830,823L791,633Z" fill="#6fc770" stroke="#6fc770"/><path d="M791,633L830,823L976,768Z" fill="#64c068" stroke="#64c068"/><path d="M791,633L976,768L996,704Z" fill="#64c668" stroke="#64c668"/><path d="M996,704L976,768L1084,786Z" fill="#50b55b" stroke="#50b55b"/><path d="M996,704L1084,786L1168,678Z" fill="#46b75e" stroke="#46b75e"/><path d="M1168,678L1084,786L1297,868Z" fill="#36a456" stroke="#36a456"/><path d="M1168,678L1297,868L1216,670Z" fill="#2ea959" stroke="#2ea959"/><path d="M1216,670L1297,868L1418,781Z" fill="#1e9a51" stroke="#1e9a51"/><path d="M1216,670L1418,781L1447,706Z" fill="#15a155" stroke="#15a155"/><path d="M1447,706L1418,781L1547,734Z" fill="#00924d" stroke="#00924d"/><path d="M1547,734L1418,781L1611,841Z" fill="#008345" stroke="#008345"/><path d="M1547,734L1611,841L1691,712Z" fill="#008043" stroke="#008043"/><path d="M1691,712L1611,841L1765,869Z" fill="#006f3b" stroke="#006f3b"/><path d="M-57,831L-27,932L67,823Z" fill="#6b482d" stroke="#6b482d"/><path d="M67,823L-27,932L75,1028Z" fill="#6f4028" stroke="#6f4028"/><path d="M67,823L75,1028L184,932Z" fill="#744b2d" stroke="#744b2d"/><path d="M67,823L184,932L183,809Z" fill="#766138" stroke="#766138"/><path d="M183,809L184,932L382,877Z" fill="#7b6d3e" stroke="#7b6d3e"/><path d="M382,877L184,932L401,977Z" fill="#7d6c3d" stroke="#7d6c3d"/><path d="M382,877L401,977L510,918Z" fill="#7f7e47" stroke="#7f7e47"/><path d="M382,877L510,918L526,803Z" fill="#7f9051" stroke="#7f9051"/><path d="M526,803L510,918L678,976Z" fill="#7f9558" stroke="#7f9558"/><path d="M526,803L678,976L732,832Z" fill="#7ba15e" stroke="#7ba15e"/><path d="M732,832L678,976L842,1034Z" fill="#719355" stroke="#719355"/><path d="M732,832L842,1034L830,823Z" fill="#6da15b" stroke="#6da15b"/><path d="M830,823L842,1034L1007,986Z" fill="#61904e" stroke="#61904e"/><path d="M830,823L1007,986L976,768Z" fill="#5ba254" stroke="#5ba254"/><path d="M976,768L1007,986L1084,786Z" fill="#509f50" stroke="#509f50"/><path d="M1084,786L1007,986L1095,1031Z" fill="#498945" stroke="#498945"/><path d="M1084,786L1095,1031L1297,868Z" fill="#3a8b48" stroke="#3a8b48"/><path d="M1297,868L1095,1031L1329,921Z" fill="#2c7a40" stroke="#2c7a40"/><path d="M1297,868L1329,921L1382,925Z" fill="#197940" stroke="#197940"/><path d="M1297,868L1382,925L1418,781Z" fill="#148144" stroke="#148144"/><path d="M1418,781L1382,925L1611,841Z" fill="#007940" stroke="#007940"/><path d="M1611,841L1382,925L1633,1033Z" fill="#006033" stroke="#006033"/><path d="M1611,841L1633,1033L1757,960Z" fill="#00522c" stroke="#00522c"/><path d="M1611,841L1757,960L1765,869Z" fill="#005a30" stroke="#005a30"/><path d="M75,1028L842,1034L401,977Z" fill="#7f6b3c" stroke="#7f6b3c"/><path d="M75,1028L401,977L184,932Z" fill="#7b502f" stroke="#7b502f"/><path d="M401,977L842,1034L678,976Z" fill="#7c8450" stroke="#7c8450"/><path d="M401,977L678,976L510,918Z" fill="#7f824d" stroke="#7f824d"/><path d="M842,1034L1633,1033L1095,1031Z" fill="#356937" stroke="#356937"/><path d="M842,1034L1095,1031L1007,986Z" fill="#567b3e" stroke="#567b3e"/><path d="M1095,1031L1633,1033L1382,925Z" fill="#136133" stroke="#136133"/><path d="M1095,1031L1382,925L1329,921Z" fill="#26733c" stroke="#26733c"/></g></svg>